<svg xmlns="http://www.w3.org/2000/svg" viewBox="0 0 1200 800" role="img" aria-labelledby="title desc">
  <title id="title">Simulation genre scene</title>
  <desc id="desc">A stylized city simulation dashboard with roads, buildings, sliders, and system graphs.</desc>
  <defs>
    <linearGradient id="sky" x1="0" y1="0" x2="1" y2="1">
      <stop offset="0" stop-color="#0f766e"/>
      <stop offset="0.45" stop-color="#0ea5e9"/>
      <stop offset="1" stop-color="#172554"/>
    </linearGradient>
    <linearGradient id="ground" x1="0" y1="0" x2="1" y2="1">
      <stop offset="0" stop-color="#164e63"/>
      <stop offset="1" stop-color="#020617"/>
    </linearGradient>
    <filter id="shadow" x="-20%" y="-20%" width="140%" height="140%">
      <feDropShadow dx="0" dy="24" stdDeviation="20" flood-color="#020617" flood-opacity="0.35"/>
    </filter>
  </defs>
  <rect width="1200" height="800" fill="url(#sky)"/>
  <circle cx="970" cy="130" r="76" fill="#bae6fd" opacity="0.58"/>
  <path d="M0 515 244 386l255 126 246-141 455 192v237H0Z" fill="url(#ground)"/>
  <path d="M138 617 558 418l470 196-426 210Z" fill="#0f172a" opacity="0.48"/>
  <g filter="url(#shadow)">
    <path d="M238 544 430 450l190 86-192 98Z" fill="#155e75"/>
    <path d="M430 450v122l-192 96V544Z" fill="#0f766e"/>
    <path d="M620 536v124l-192 96V634Z" fill="#0e7490"/>
    <path d="M238 544v124l190 88V634Z" fill="#083344"/>
    <path d="M498 384 642 313l143 66-143 73Z" fill="#38bdf8"/>
    <path d="M642 313v252l-144 72V384Z" fill="#0369a1"/>
    <path d="M785 379v252l-143 72V452Z" fill="#075985"/>
    <path d="M498 384v253l144 66V452Z" fill="#082f49"/>
    <path d="M738 512 878 443l139 64-140 72Z" fill="#67e8f9"/>
    <path d="M878 443v141l-140 70V512Z" fill="#0891b2"/>
    <path d="M1017 507v141l-139 70V579Z" fill="#0e7490"/>
    <path d="M738 512v142l140 64V579Z" fill="#164e63"/>
  </g>
  <g fill="#e0f2fe" opacity="0.85">
    <rect x="542" y="422" width="22" height="42" rx="4"/>
    <rect x="584" y="444" width="22" height="42" rx="4"/>
    <rect x="626" y="467" width="22" height="42" rx="4"/>
    <rect x="668" y="491" width="22" height="42" rx="4"/>
    <rect x="777" y="541" width="24" height="28" rx="4"/>
    <rect x="824" y="565" width="24" height="28" rx="4"/>
    <rect x="872" y="588" width="24" height="28" rx="4"/>
  </g>
  <path d="M110 686c156-28 265-14 376 26 135 49 243 56 390-5 78-32 143-42 214-34" fill="none" stroke="#7dd3fc" stroke-width="28" stroke-linecap="round" opacity="0.7"/>
  <path d="M112 686c156-28 265-14 376 26 135 49 243 56 390-5 78-32 143-42 214-34" fill="none" stroke="#f8fafc" stroke-width="5" stroke-dasharray="34 32" stroke-linecap="round" opacity="0.75"/>
  <g filter="url(#shadow)">
    <rect x="90" y="86" width="290" height="178" rx="24" fill="#020617" opacity="0.72"/>
    <rect x="128" y="136" width="196" height="14" rx="7" fill="#bae6fd" opacity="0.42"/>
    <rect x="128" y="188" width="196" height="14" rx="7" fill="#bae6fd" opacity="0.28"/>
    <circle cx="272" cy="143" r="24" fill="#22d3ee"/>
    <circle cx="204" cy="195" r="24" fill="#facc15"/>
    <path d="M128 233c35-42 61-25 86-52 37-40 61-22 110-64" fill="none" stroke="#67e8f9" stroke-width="10" stroke-linecap="round"/>
    <rect x="818" y="86" width="292" height="178" rx="24" fill="#020617" opacity="0.64"/>
    <path d="M864 212V132M924 212v-48M984 212v-96M1044 212v-68" stroke="#bae6fd" stroke-width="20" stroke-linecap="round"/>
    <path d="M864 212h192" stroke="#38bdf8" stroke-width="8" stroke-linecap="round" opacity="0.9"/>
  </g>
</svg>
